<svg width="143" height="150" viewBox="0 0 143 150" fill="none" xmlns="http://www.w3.org/2000/svg">
<ellipse cx="71.5" cy="68" rx="71.5" ry="68" fill="white"/>
<g clip-path="url(#clip0)">
<path d="M114.87 64.357C112.956 63.481 110.724 64.275 109.882 66.056C107.17 71.853 100.625 75.792 93.133 75.792C86.903 75.792 79.995 72.613 76.839 66.956C77.307 66.675 77.751 66.348 78.16 65.974L80.346 63.999L82.31 62.222C85.022 59.767 85.571 56.752 83.935 54.064C83.526 53.386 82.988 52.743 82.31 52.135L81.34 51.258L78.161 48.383C74.773 45.319 69.229 45.319 65.841 48.383L61.809 52.03L61.692 52.135C61.014 52.743 60.476 53.386 60.067 54.064C58.431 56.752 58.98 59.768 61.692 62.222L63.656 63.999L67.174 66.921C67.174 66.922 67.174 66.923 67.175 66.924C65.459 71.382 57.499 74.658 56.386 75.045C54.668 75.641 52.669 75.793 50.869 75.793C43.426 75.793 36.906 71.906 34.151 66.159C33.639 65.092 32.649 64.286 31.486 64.068C30.157 63.819 28.934 64.264 28.1 65.098C27.421 65.776 27 66.711 27 67.751V71.409C27 89.666 40.138 101.177 58.243 106.495C60.616 111.322 65.887 114.7 71.988 114.7C78.101 114.7 83.372 111.322 85.745 106.495C103.851 101.177 117 89.667 117 71.41V67.868C117 66.392 116.212 64.971 114.87 64.357ZM81.736 100.768C81.736 105.49 77.365 109.324 71.988 109.324C66.623 109.324 62.263 105.49 62.263 100.768V81.789C62.263 80.249 63.098 78.854 64.412 78.052C65.224 77.557 66.001 77.017 66.739 76.436C67.322 75.979 67.883 75.501 68.416 74.999C68.702 74.729 69.17 74.919 69.17 75.313V95.303C69.17 96.533 69.907 97.701 71.078 98.075C73.022 98.695 74.815 97.26 74.815 95.393V75.309C74.815 74.916 75.281 74.726 75.568 74.994C76.106 75.498 76.674 75.977 77.258 76.435C77.997 77.016 78.773 77.556 79.585 78.051C80.899 78.853 81.734 80.248 81.734 81.788V100.768H81.736Z" fill="black"/>
<path d="M42.568 49.483C47.611 50.439 51.95 46.1 50.995 41.057C50.461 38.239 48.189 35.967 45.371 35.433C40.328 34.477 35.989 38.816 36.944 43.859C37.478 46.677 39.751 48.949 42.568 49.483Z" fill="black"/>
<path d="M98.625 49.483C103.668 50.439 108.007 46.1 107.051 41.057C106.517 38.239 104.245 35.967 101.427 35.433C96.384 34.477 92.045 38.816 93 43.859C93.535 46.677 95.808 48.949 98.625 49.483Z" fill="black"/>
</g>
<defs>
<clipPath id="clip0">
<rect width="100" height="125" fill="white" transform="translate(22 25)"/>
</clipPath>
</defs>
</svg>
